<?xml version="1.0" encoding="UTF-8" standalone="no"?>
<!DOCTYPE svg PUBLIC "-//W3C//DTD SVG 1.1//EN" "http://www.w3.org/Graphics/SVG/1.1/DTD/svg11.dtd">
<svg width="100%" height="100%" viewBox="0 0 24 24" version="1.1" xmlns="http://www.w3.org/2000/svg" xmlns:xlink="http://www.w3.org/1999/xlink" xml:space="preserve" xmlns:serif="http://www.serif.com/" style="fill-rule:evenodd;clip-rule:evenodd;stroke-linejoin:round;stroke-miterlimit:2;">
    <g transform="matrix(0.231472,0,0,0.231472,3.31872,-0.998963)">
        <path d="M29.835,47.452C29.5,47.452 29.178,47.585 28.942,47.822C28.705,48.059 28.572,48.38 28.572,48.715C28.572,48.716 28.572,48.717 28.572,48.717C28.572,49.412 29.135,49.976 29.83,49.976C35.298,49.978 57.145,49.985 66.638,49.988C67.534,49.989 68.359,50.475 68.793,51.258C69.228,52.041 69.204,52.999 68.73,53.759C62.535,63.7 45.668,90.764 37.496,103.878C36.914,104.812 35.783,105.247 34.725,104.944C33.667,104.642 32.937,103.674 32.937,102.573C32.937,93.121 32.937,78.722 32.937,74.411C32.937,74.076 32.804,73.756 32.568,73.519C32.331,73.282 32.01,73.15 31.676,73.15C31.675,73.15 31.675,73.15 31.674,73.15C31.34,73.15 31.019,73.282 30.782,73.519C30.546,73.756 30.413,74.076 30.413,74.411C30.413,77.99 30.413,96.657 30.413,102.622C30.413,103.778 30.21,106.873 33.78,107.855C37.421,108.856 40.193,104.367 40.368,104.085C42.894,100.026 62.632,68.31 70.863,55.082C71.84,53.514 72.144,51.199 71.409,49.877C70.446,48.142 68.31,47.463 66.594,47.463C54.794,47.46 34.999,47.454 29.835,47.452ZM49.773,64.864C49.085,64.864 48.526,64.298 48.526,63.601C48.526,62.904 49.085,62.339 49.773,62.339C50.461,62.339 51.02,62.904 51.02,63.601C51.02,64.298 50.461,64.864 49.773,64.864ZM45.175,64.863C45.51,64.863 45.831,64.73 46.068,64.494C46.305,64.257 46.438,63.936 46.438,63.601C46.438,63.6 46.438,63.599 46.438,63.598C46.438,62.903 45.874,62.34 45.179,62.339C39.711,62.338 17.864,62.331 8.372,62.327C7.476,62.327 6.651,61.841 6.216,61.058C5.781,60.275 5.806,59.317 6.279,58.557C12.475,48.616 29.341,21.551 37.513,8.438C38.095,7.504 39.226,7.069 40.285,7.371C41.343,7.674 42.072,8.642 42.072,9.742C42.072,19.194 42.072,33.594 42.072,37.905C42.072,38.239 42.205,38.56 42.442,38.797C42.678,39.033 42.999,39.166 43.334,39.166C43.334,39.166 43.335,39.166 43.335,39.166C43.67,39.166 43.991,39.033 44.227,38.797C44.464,38.56 44.597,38.239 44.597,37.905C44.597,34.325 44.597,15.658 44.597,9.693C44.597,8.538 44.8,5.443 41.229,4.461C37.589,3.46 34.817,7.949 34.641,8.231C32.115,12.29 12.378,44.006 4.146,57.233C3.17,58.802 2.866,61.116 3.6,62.439C4.564,64.174 6.699,64.852 8.416,64.853C20.215,64.856 40.01,64.862 45.175,64.863ZM25.236,47.452C25.925,47.452 26.483,48.018 26.483,48.715C26.483,49.411 25.925,49.977 25.236,49.977C24.548,49.977 23.989,49.411 23.989,48.715C23.989,48.018 24.548,47.452 25.236,47.452Z" style="fill:url(#_Linear1);fill-rule:nonzero;"/>
        <path d="M30.413,75.884L32.664,73.628C32.635,73.59 32.602,73.554 32.568,73.519C32.331,73.282 32.01,73.15 31.676,73.15C31.675,73.15 31.675,73.15 31.674,73.15C31.34,73.15 31.019,73.282 30.782,73.519C30.546,73.756 30.413,74.076 30.413,74.411L30.413,75.884ZM18.727,38.584L10.118,47.636L4.146,57.233C3.17,58.802 2.866,61.116 3.6,62.439C4.564,64.174 6.699,64.852 8.416,64.853L41.416,64.862L43.935,62.339L8.372,62.327C7.476,62.327 6.651,61.841 6.216,61.058C5.781,60.275 5.806,59.317 6.279,58.557L18.727,38.584ZM58.815,47.461L29.835,47.452C29.5,47.452 29.178,47.585 28.942,47.822C28.705,48.059 28.572,48.38 28.572,48.715C28.572,48.716 28.572,48.717 28.572,48.717C28.572,49.412 29.135,49.976 29.83,49.976L56.286,49.985L58.815,47.461ZM25.236,47.452C25.925,47.452 26.483,48.018 26.483,48.715C26.483,49.411 25.925,49.977 25.236,49.977C24.548,49.977 23.989,49.411 23.989,48.715C23.989,48.018 24.548,47.452 25.236,47.452ZM44.597,11.378L42.072,14.032L42.072,37.905C42.072,38.239 42.205,38.56 42.442,38.797C42.678,39.033 42.999,39.166 43.334,39.166C43.334,39.166 43.335,39.166 43.335,39.166C43.67,39.166 43.991,39.033 44.227,38.797C44.464,38.56 44.597,38.239 44.597,37.905L44.597,11.378Z" style="fill:url(#_Linear2);fill-rule:nonzero;"/>
    </g>
    <defs>
        <linearGradient id="_Linear1" x1="0" y1="0" x2="1" y2="0" gradientUnits="userSpaceOnUse" gradientTransform="matrix(37.6106,-37.6106,37.6106,37.6106,-4.5056,35.881)"><stop offset="0" style="stop-color:rgb(0,149,213);stop-opacity:1"/><stop offset="0.1" style="stop-color:rgb(0,149,213);stop-opacity:1"/><stop offset="0.3" style="stop-color:rgb(35,138,217);stop-opacity:1"/><stop offset="0.62" style="stop-color:rgb(85,123,222);stop-opacity:1"/><stop offset="0.86" style="stop-color:rgb(116,114,226);stop-opacity:1"/><stop offset="1" style="stop-color:rgb(128,110,227);stop-opacity:1"/></linearGradient>
        <linearGradient id="_Linear2" x1="0" y1="0" x2="1" y2="0" gradientUnits="userSpaceOnUse" gradientTransform="matrix(81.681,-81.682,81.682,81.681,-11.379,92.369)"><stop offset="0" style="stop-color:rgb(199,87,188);stop-opacity:1"/><stop offset="0.11" style="stop-color:rgb(199,87,188);stop-opacity:1"/><stop offset="0.21" style="stop-color:rgb(208,96,154);stop-opacity:1"/><stop offset="0.43" style="stop-color:rgb(225,114,92);stop-opacity:1"/><stop offset="0.6" style="stop-color:rgb(238,126,47);stop-opacity:1"/><stop offset="0.74" style="stop-color:rgb(245,134,19);stop-opacity:1"/><stop offset="0.82" style="stop-color:rgb(248,137,9);stop-opacity:1"/><stop offset="1" style="stop-color:rgb(248,137,9);stop-opacity:1"/></linearGradient>
    </defs>
</svg>
